<svg width="25" height="24" viewBox="0 0 25 24" fill="none" xmlns="http://www.w3.org/2000/svg">
<g id="Facebook" clip-path="url(#clip0_267_4291)">
<path id="Vector" d="M23.7678 12.06C23.7678 5.61001 18.5628 0.375014 12.1428 0.375014C9.91004 0.37155 7.72326 1.0095 5.8426 2.21299C3.96193 3.41647 2.46653 5.13483 1.53427 7.16367C0.60202 9.19251 0.272149 11.4464 0.583901 13.6573C0.895653 15.8682 1.83591 17.9431 3.29281 19.635C5.09357 21.7454 7.58804 23.1442 10.3278 23.58V15.345H7.47782V12.045H10.3278V9.61502C10.3278 6.79501 12.0378 5.26501 14.5278 5.26501C15.7278 5.26501 16.7628 5.35501 17.0628 5.38501V8.34002H15.3378C13.9728 8.34002 13.6878 8.98501 13.6878 9.94501V12.045H16.9428L16.5228 15.345H13.7028V23.625C16.4927 23.2371 19.0477 21.8521 20.8952 19.726C22.7428 17.5999 23.7579 14.8767 23.7528 12.06" fill="#0A0A0A"/>
</g>
<defs>
<clipPath id="clip0_267_4291">
<rect width="24" height="24" fill="white" transform="translate(0.142578)"/>
</clipPath>
</defs>
</svg>
