<svg width="25" height="24" viewBox="0 0 25 24" fill="none" xmlns="http://www.w3.org/2000/svg">
<g id="Group">
<path id="Vector" d="M12.1426 24C18.77 24 24.1426 18.6274 24.1426 12C24.1426 5.37258 18.77 0 12.1426 0C5.51516 0 0.142578 5.37258 0.142578 12C0.142578 18.6274 5.51516 24 12.1426 24Z" fill="#0A0A0A"/>
<g id="Group_2">
<path id="Vector_2" d="M19.3123 12.9656V17.9129H16.444V13.2971C16.444 12.1382 16.0299 11.3467 14.9913 11.3467C14.1988 11.3467 13.728 11.8796 13.5201 12.3955C13.4445 12.5799 13.4251 12.836 13.4251 13.0946V17.9127H10.5565C10.5565 17.9127 10.595 10.0951 10.5565 9.28588H13.4253V10.5084C13.4195 10.518 13.4114 10.5274 13.4063 10.5366H13.4253V10.5084C13.8065 9.92184 14.4863 9.08331 16.0104 9.08331C17.8975 9.08331 19.3123 10.3163 19.3123 12.9656ZM7.55578 5.12744C6.57456 5.12744 5.93262 5.77153 5.93262 6.61776C5.93262 7.44603 6.55595 8.10872 7.51813 8.10872H7.53674C8.5372 8.10872 9.15926 7.44603 9.15926 6.61776C9.14022 5.77153 8.5372 5.12744 7.55578 5.12744ZM6.1031 17.9129H8.97059V9.28588H6.1031V17.9129Z" fill="#F1F2F2"/>
</g>
</g>
</svg>
