<svg width="30" height="24" viewBox="0 0 30 24" fill="none" xmlns="http://www.w3.org/2000/svg">
<g id="Twitter" clip-path="url(#clip0_267_4290)">
<path id="Vector" d="M27.4283 0.583043C26.2797 1.2859 25.0283 1.78304 23.6911 2.07447C23.15 1.47701 22.4925 0.996459 21.7589 0.662344C21.0253 0.328229 20.2312 0.147599 19.4253 0.131544C18.6194 0.11549 17.8187 0.264351 17.0724 0.568987C16.3261 0.873622 15.6499 1.3276 15.0854 1.90304C14.5301 2.45936 14.0898 3.11966 13.7898 3.8462C13.4898 4.57274 13.3359 5.35128 13.3369 6.13733C13.3369 6.61733 13.3883 7.06304 13.4569 7.50876C11.0831 7.38109 8.76262 6.75668 6.64536 5.67591C4.5281 4.59513 2.66122 3.08204 1.16544 1.23447C0.649703 2.14776 0.356078 3.16957 0.308292 4.21733C0.321025 5.2048 0.570546 6.17479 1.0359 7.04583C1.50124 7.91687 2.16883 8.66351 2.98258 9.22304C2.0488 9.19084 1.13686 8.93197 0.325435 8.46876V8.57161C0.325435 11.4345 2.38258 13.8516 5.12543 14.4345C4.61115 14.5373 4.09686 14.6059 3.51401 14.6402L2.45115 14.5373C2.83097 15.7218 3.5695 16.7589 4.56457 17.5052C5.55963 18.2515 6.76204 18.6701 8.00544 18.703C5.85275 20.3347 3.23216 21.2302 0.53115 21.2573L-0.857422 21.1716C1.88789 22.9207 5.07599 23.8486 8.33115 23.8459C19.3026 23.8459 25.3197 14.7259 25.3026 6.87447V6.01733C26.4854 5.17733 27.4969 4.13161 28.2854 2.91447C27.2054 3.42876 26.0569 3.73733 24.8569 3.87447C26.1024 3.13745 27.0215 1.95485 27.4283 0.5659" fill="#0A0A0A"/>
</g>
<defs>
<clipPath id="clip0_267_4290">
<rect width="29.1429" height="24" fill="white"/>
</clipPath>
</defs>
</svg>
